<?xml version="1.0" encoding="UTF-8"?>
<svg id="katman_1" xmlns="http://www.w3.org/2000/svg" version="1.1" viewBox="0 0 120.5 72">
  <!-- Generator: Adobe Illustrator 29.8.1, SVG Export Plug-In . SVG Version: 2.1.1 Build 2)  -->
  <defs>
    <style>
      .st0 {
        fill: #495057;
      }

      .st1 {
        fill: #1e64ff;
        fill-rule: evenodd;
      }
    </style>
  </defs>
  <path id="Combined-Shape" class="st1" d="M28.5,41.2c.8-1.5,2.6-2,4.1-1.3,1.5.8,2.1,2.6,1.3,4.1h0l-13.7,26.4c-.5,1-1.5,1.6-2.6,1.6s-1,0-1.5-.3c-1.5-.8-2.1-2.6-1.3-4.1h0l3.9-7.5-8.4-16.2c-.8-1.5-.2-3.3,1.3-4.1s3.3-.2,4.1,1.3h0l6.5,12.4,6.3-12.3h0ZM83.9,39.2c3.3,0,6.3,1.3,8.6,3.6,1.2,1.2,1.2,3.1,0,4.2-1.2,1.2-3.1,1.2-4.3,0-1.2-1.2-2.7-1.8-4.4-1.8s-3.2.6-4.4,1.8c-1.2,1.2-1.8,2.7-1.8,4.3s.6,3.2,1.8,4.3c1.2,1.2,2.7,1.8,4.4,1.8s3.2-.6,4.4-1.8c1.2-1.2,3.1-1.2,4.3,0,1.2,1.2,1.2,3.1,0,4.2-2.3,2.3-5.4,3.6-8.6,3.6s-6.3-1.3-8.6-3.6c-2.3-2.3-3.6-5.3-3.6-8.6s1.3-6.3,3.6-8.6c2.3-2.3,5.4-3.4,8.6-3.4h0ZM108.2,39.2c6.7,0,12.2,5.5,12.2,12.2s-5.5,12.2-12.2,12.2-12.2-5.5-12.2-12.2,5.5-12.2,12.2-12.2ZM3.3,39.6c1.7,0,3,1.3,3,3h0v17.6c0,1.7-1.3,3-3,3s-3-1.3-3-3h0v-17.6c0-1.7,1.4-3,3-3ZM53,39.6h1.3c.6,0,1.3.3,1.8.7,1.3,1.1,1.4,3,.4,4.2h0l-10.6,12.6h8.3c1.7,0,3,1.3,3,3s-1.4,3-3,3h-14.8c-.7,0-1.4-.2-1.9-.7-1.3-1.1-1.4-3-.4-4.2h0l10.6-12.6h-7c-1.7,0-3-1.3-3-3s1.3-3,3-3h12.3ZM64.7,39.6c1.7,0,3,1.3,3,3h0v17.6c0,1.7-1.3,3-3,3s-3-1.3-3-3h0v-17.6c0-1.7,1.3-3,3-3ZM108.2,45.2c-3.4,0-6.2,2.8-6.2,6.2s2.8,6.2,6.2,6.2,6.2-2.8,6.2-6.2-2.8-6.2-6.2-6.2ZM3.3,30c1.8,0,3.3,1.5,3.3,3.3s-1.5,3.3-3.3,3.3-3.3-1.5-3.3-3.3,1.5-3.3,3.3-3.3ZM64.7,30c1.8,0,3.3,1.5,3.3,3.3s-1.5,3.3-3.3,3.3-3.3-1.5-3.3-3.3,1.5-3.3,3.3-3.3Z"/>
  <path id="Shape" class="st0" d="M15.1,7.4c0,4-3,6.8-7.8,6.8H3.2v6.2c0,.9-.8,1.6-1.6,1.6s-1.6-.7-1.6-1.6V2.5C0,1.4.8.6,1.8.6h5.5c4.7.1,7.8,3,7.8,6.8ZM12,7.4c0-2.7-1.8-3.9-4.6-3.9H3.4v7.9h4c2.7,0,4.6-1.2,4.6-4Z"/>
  <path id="Shape1" class="st0" d="M28.2,8.9v-1.3c0-.9.8-1.6,1.6-1.6s1.6.8,1.6,1.6v12.8c0,.9-.8,1.6-1.6,1.6s-1.6-.8-1.6-1.6v-1.6c-.2,1.4-2,3.2-5,3.2s-7.4-2.6-7.4-8.1,4.1-8.1,7.4-8.1c2.2,0,4.1,1.2,5,3h0ZM28.3,14c0-3.8-2.6-5.3-4.6-5.3s-4.7,1.7-4.7,5.3,2.5,5.3,4.7,5.3c2.2.1,4.6-1.5,4.6-5.3Z"/>
  <path id="Path" class="st0" d="M48.7,7.5c0,.3,0,.5-.2.8l-8.1,18.4c-.3.8-.9,1.1-1.5,1.1s-1.4-.6-1.4-1.4,0-.5.2-.8l1.8-4.3-5.8-13c0-.2-.2-.4-.2-.8,0-.8.6-1.4,1.5-1.4s1.2.3,1.5,1.1l4.5,10.5,4.5-10.5c.3-.8.9-1.1,1.5-1.1,1,0,1.7.6,1.7,1.4h0Z"/>
  <path id="Path1" class="st0" d="M81,7.5c0,.2,0,.4-.2.8l-4.3,12.4c-.3.8-.9,1.2-1.5,1.2s-1.3-.4-1.6-1.2l-4.1-10-4.1,10c-.3.8-.9,1.2-1.5,1.2s-1.3-.4-1.5-1.2l-4.3-12.4c0-.3-.2-.4-.2-.8,0-.9.6-1.5,1.5-1.5s1.2.3,1.4.9l3.3,10.2,4-10.1c.2-.6.8-1,1.4-1s1.2.3,1.4,1l4,10.1,3.3-10.2c0-.5.8-.9,1.4-.9,1,0,1.6.8,1.6,1.5h0Z"/>
  <path id="Shape2" class="st0" d="M83.4,1.6C83.4.7,84.2,0,85,0s1.6.8,1.6,1.6-.8,1.6-1.6,1.6-1.6-.8-1.6-1.6ZM86.6,7.7v12.7c0,.9-.8,1.6-1.6,1.6s-1.6-.8-1.6-1.6V7.7c0-.9.8-1.6,1.6-1.6,1,0,1.6.6,1.6,1.6Z"/>
  <path id="Path2" class="st0" d="M97.9,20.2c0,1.3-1.4,1.8-3.1,1.8s-3.6-.6-3.6-4.1v-9.2h-1.2c-.8,0-1.3-.5-1.3-1.3s.5-1.3,1.3-1.3h1.2v-2.4c0-.9.8-1.6,1.6-1.6s1.6.8,1.6,1.6v2.4h2.2c.8,0,1.3.5,1.3,1.3s-.5,1.3-1.3,1.3h-2.2v9.2c0,.9.3,1.3,1.1,1.3s.9-.1,1.2-.1c.6-.1,1.2.3,1.2,1.1Z"/>
  <path id="Path3" class="st0" d="M114.5,13v7.4c0,.9-.6,1.6-1.6,1.6s-1.6-.8-1.6-1.6v-7.4c0-3-1.7-4.2-3.7-4.2-2.9,0-4.2,2.6-4.3,3.9v7.7c0,.9-.8,1.6-1.6,1.6s-1.6-.8-1.6-1.6V1.9c0-.9.8-1.6,1.6-1.6s1.6.8,1.6,1.6v7.7c0-1.1,1.9-3.7,5.4-3.7s5.8,1.8,5.8,7h0Z"/>
</svg>